<?xml version="1.0" encoding="utf-8"?>
<!-- Generator: Adobe Illustrator 24.2.1, SVG Export Plug-In . SVG Version: 6.00 Build 0)  -->
<svg version="1.1" id="Camada_1" xmlns="http://www.w3.org/2000/svg" xmlns:xlink="http://www.w3.org/1999/xlink" x="0px" y="0px"
	 viewBox="0 0 512 512" style="enable-background:new 0 0 512 512;" xml:space="preserve">
<path d="M191.1,224c0-17.7-14.3-32-32-32H144c-35.3,0-64,28.7-64,64.1v47.8c0,35.4,28.7,64.1,64,64.1h16c17.7,0,32-14.4,32-32.1
	L191.1,224z M256,0C112.9,0,4.6,119.1,0,256v40c0,13.3,10.8,24,23.1,24S48,309.3,48,296v-40c0-114.7,93.3-207.8,208-207.8
	S464,141.3,464,256v144c0,22.1-17.9,40-40,40H313.3c-8.3-14.3-23.6-24-41.3-24h-30.2c-23.2,0-44.5,15.7-48.9,38.5
	c-5.9,30.7,17.5,57.5,46.2,57.5H272c17.7,0,33-9.7,41.3-24H424c48.6,0,88-39.4,88-88V256C507.4,119.1,399.1,0,256,0z M368,368
	c35.3,0,64-28.7,64-64.1v-47.8c0-35.4-28.7-64.1-64-64.1h-16c-17.7,0-32,14.3-32,32v111.9c0,17.8,14.3,32.1,32,32.1H368z"/>
</svg>
