<?xml version="1.0" encoding="utf-8"?>
<!-- Generator: Adobe Illustrator 24.2.1, SVG Export Plug-In . SVG Version: 6.00 Build 0)  -->
<svg version="1.1" id="Camada_1" xmlns="http://www.w3.org/2000/svg" xmlns:xlink="http://www.w3.org/1999/xlink" x="0px" y="0px"
	 viewBox="0 0 512 512" style="enable-background:new 0 0 512 512;" xml:space="preserve">
<path d="M411.6,112.3l99.9,379.4c1.4,5.6-0.2,11.6-4.3,15.6c-4.1,4.1-10.1,5.7-15.6,4.1L112.4,406.3
	C116.7,231.4,235.5,114.1,411.6,112.3z M384.9,416c17.6,0,32-14.4,32-31.1c0-17.6-14.4-32-32-32s-32,14.4-32,31.1
	C352,401.6,366.4,416,384.9,416z M336.9,271.1c17.6,0,32-14.4,32-32s-14.4-31.1-32-31.1s-32,14.4-32,31.1
	C304,257.6,318.4,271.1,336.9,271.1z M240,367.1c17.6,0,32-14.4,32-31.1c0-17.6-14.4-32-32-32s-32,14.4-32,32S222.4,367.1,240,367.1
	z M353.1,0.1c16.1-1.5,31.3,8.5,35.4,24.1l14.8,56.3C215.7,86,88.8,211.1,80.8,396.6l-56.9-15.8C8.1,376.5-1.6,361.3,0.2,345
	C21.1,165.1,171.2,17.4,353.1,0.1z"/>
</svg>
